# xmcd
#
# Track frame offsets: 
#        150
#        28522
#        51835
#        76665
#        96890
#        123685
#        147997
#        170667
#        193597
#        216947
#
# Disc length: 3344 seconds
#
# Revision: 0
# Processed by: cddbd v1.5.2PL0 Copyright (c) Steve Scherf et al.
# Submitted via: ExactAudioCopy v1.0b3
#
DISCID=8c0d0e0a
DTITLE=Various Artist - Rumba Bolero
DYEAR=1993
DGENRE=
TTITLE0=Julie - Yeu la chet trong long
TTITLE1=Giao Linh - Tra lai thoi gian
TTITLE2=Thanh Tuyen - Do chieu
TTITLE3=Julie - Chieu nay khong ai dua ve
TTITLE4=Huong Lan - Nhat ky doi toi
TTITLE5=Giao Linh - Dam cuoi ngheo
TTITLE6=Thien Trang - Mua dem tuong nho
TTITLE7=Kim Tuyen - Chuyen xe lam chieu
TTITLE8=Giao Linh - Khong phai tai chung minh
TTITLE9=Huong Lan - Tam anh ngay xua
EXTD=
EXTT0=
EXTT1=
EXTT2=
EXTT3=
EXTT4=
EXTT5=
EXTT6=
EXTT7=
EXTT8=
EXTT9=
PLAYORDER=
